<?xml version="1.0" encoding="utf-8"?>
<!-- Generator: Adobe Illustrator 28.2.0, SVG Export Plug-In . SVG Version: 6.00 Build 0)  -->
<svg version="1.1" id="Calque_1" xmlns="http://www.w3.org/2000/svg" xmlns:xlink="http://www.w3.org/1999/xlink" x="0px" y="0px"
	 viewBox="0 0 1736 551" style="enable-background:new 0 0 1736 551;" xml:space="preserve">
<style type="text/css">
	.st0{fill:#FAA023;}
	.st1{fill:none;}
</style>
<path class="st0" d="M290.4,258.6c-0.3-16.9,3-43.6,11.3-69.6c15.6-48.6,48.7-78.5,98.5-87.9c32.7-6.1,65.2-12.9,97.5-20.7
	c45.8-11.2,86.2,1.6,120.8,32.7c33.9,30.4,59,67.4,77.9,108.5c11.6,25.2,10.2,51.4,0.7,77.4c-8.9,24.5-22.8,46.6-32.7,70.6
	c-2.6,6.3-6.6,1.6-9.9,1.1c-3.9-0.6-5.2-3-3.3-6.8c3.1-6.1,6-12.2,9.3-18.2c9.4-17.3,19.1-34.4,25.7-53c9-25.2,8.5-50.1-4-73.9
	c-18.9-36.2-41.8-69.7-72.8-96.9c-34-29.9-73-40.4-116.9-27.7c-27.3,7.9-54.9,13.5-82.9,17.6c-54.6,8.1-87.6,41.1-99.6,93.8
	c-14.5,63.8-8.3,126.7,16,187.5c24.5,61.3,78.8,76.9,130.6,63.9c17.3-4.4,34-10.8,51.5-14.2c8.1-1.6,16.2-1.2,24.3-0.9
	c3.4,0.1,6.1,1.6,4.9,5.2c-1.1,3.3,0,9.7-5.5,8.9c-24-3.4-45.3,6.8-67.6,12.2c-31.1,7.5-61.7,7.8-91.7-5.3
	c-31.1-13.6-48.2-39.4-60-69.5C297,353.5,290.7,311.8,290.4,258.6z"/>
<path class="st0" d="M334.9,285.4c-0.4-22.8,2.5-44,9.6-64.5c12.5-36,36.8-60.4,72.6-73.3c20.2-7.3,41.1-12.3,62.4-15.8
	c24.7-4,48,0.6,68.5,14.2c30.2,19.9,58.5,42.6,82.3,70.2c18.8,21.8,22.8,46.5,11.7,73.3c-1.6,3.9-2.9,7.9-5,11.5
	c-14.2,25.1-20.8,52.2-24,80.7c-2.9,25.9-20.2,39.8-46.3,39.4c-8.3-0.1-16.7-1.5-25-2.7c-19.1-2.8-37.6,0.4-55.8,5.9
	c-15.5,4.7-30.8,10.3-47.2,11.7c-32.8,2.8-58.5-9.4-76.2-37.1c-15.9-24.8-21.9-53.1-25.8-81.8C335.1,306.3,334.3,295.3,334.9,285.4z
	 M345.5,285c0,31.5,4.4,62.2,16.1,91.5c10.4,26.1,28,44.9,57.2,49.2c16.2,2.4,31.9-1.5,47-6.7c31.4-10.7,62.9-14.3,95.9-8
	c22,4.3,37.8-7.5,42.3-29.7c2.4-12,3.5-24.3,5.5-36.5c3.3-19.2,13.1-35.8,21.3-53c13.2-27.8,9.1-53.1-11.8-75.3
	c-22.4-23.7-48.3-43.5-75.4-61.4c-21.4-14.1-45.3-17.2-70.2-12.2c-18.5,3.7-36.9,8.1-54.6,14.5c-28.1,10-48.6,28.4-60.5,56
	C348.5,236.4,345.4,260.4,345.5,285z"/>
<path class="st0" d="M655.7,405.3c-0.3,4.4-0.5,8.9-0.9,13.3c-0.2,2.2,0.1,5.3-3.7,4.4c-2.5-0.6-6.5-0.3-6.4-4.3
	c0.1-8.4,0.5-16.7,1-25.1c0.2-3.5,1.7-5.8,6.1-5c4,0.7,5.1,2.7,4.4,6.6c-0.6,3.3-0.5,6.8-0.7,10.2
	C655.6,405.3,655.7,405.3,655.7,405.3z"/>
<path class="st0" d="M627.9,462.7c-1.7,0-2.4-2.6-3.8-4.3c-1.5-2-1.4-3.9,0.7-5.4c5.4-3.8,9.8-8.5,13.5-14c1.6-2.4,3.5-1.9,5.4-0.6
	c1.7,1.1,4.1,1.4,4.1,4.1C648,446.9,633.6,462.5,627.9,462.7z"/>
<path class="st0" d="M593.9,461.4c2.6-0.2,5.3,0,7.8-0.5c4.6-1,6.7,0.2,7.2,5.2c0.6,5-2,5.6-5.8,6.1c-4.7,0.6-9.4,0.7-14.1,0
	c-3.1-0.5-7.4,0.7-6.9-4.9c0.4-4.8,2.7-7,7.8-6c1.2,0.3,2.6,0,3.9,0C593.9,461.2,593.9,461.3,593.9,461.4z"/>
<path class="st0" d="M549.2,455.3c0.2-0.5,0.5-1.2,0.8-2c1.3-3.5,3.7-4.5,6.8-2.6c4.4,2.9,12.2,1.8,12.8,8.8
	c0.3,3.8-2.4,7.7-7.9,4.4c-3.1-1.9-6.5-3.3-9.8-5C550.5,458.2,549.1,457.4,549.2,455.3z"/>
<path class="st1" d="M345.5,285c-0.1-24.6,3-48.6,12.8-71.4c11.9-27.6,32.4-45.9,60.5-56c17.8-6.4,36.1-10.8,54.6-14.5
	c24.9-5,48.8-1.9,70.2,12.2c27.1,17.9,53,37.6,75.4,61.4c21,22.2,25.1,47.5,11.8,75.3c-8.2,17.2-18.1,33.8-21.3,53
	c-2.1,12.1-3.1,24.4-5.5,36.5c-4.5,22.1-20.3,33.9-42.3,29.7c-32.9-6.4-64.5-2.8-95.9,8c-15.2,5.2-30.8,9.1-47,6.7
	c-29.3-4.3-46.8-23.2-57.2-49.2C349.9,347.2,345.6,316.4,345.5,285z M527.2,383.8c3.9,0,7.9,0,11.8,0c22,0,35.1-10.1,37.7-31.9
	c2.1-18.6,8.1-35.6,15-52.6c11.6-28.9,4.6-56.2-19.2-76.4c-12.8-10.9-26.8-20.1-41.6-28.2c-12.9-7.1-26.5-12.5-41.7-12.4
	c-27.8,0-52.2,10.2-74.3,26.1c-19.9,14.3-32.1,33.9-35.4,58.1c-4.1,30.1-0.4,59.7,10.6,88c10.3,26.3,30.4,39,58.6,39
	c11.6,0,22.9-2,34.2-4.5C497.5,385.8,512.1,382.3,527.2,383.8z"/>
<path class="st0" d="M527.2,383.8c-15.1-1.5-29.7,2-44.3,5.2c-11.3,2.5-22.5,4.5-34.2,4.5c-28.3,0-48.4-12.7-58.6-39
	c-11-28.3-14.7-57.9-10.6-88c3.3-24.2,15.4-43.9,35.4-58.1c22.1-15.9,46.5-26.1,74.3-26.1c15.2,0,28.8,5.4,41.7,12.4
	c14.7,8,28.7,17.3,41.6,28.2c23.8,20.1,30.9,47.5,19.2,76.4c-6.9,17-12.8,34-15,52.6c-2.5,21.8-15.7,31.9-37.7,31.9
	C535.1,383.8,531.1,383.8,527.2,383.8z M388,292c-0.2,15,2.8,31.8,7.1,48.3c2,7.6,4.9,14.9,9.3,21.6c14.8,22.4,36.9,25.2,60.6,21.4
	c24.5-3.9,48.3-10.6,73.8-8.1c18.2,1.8,28.3-9.3,30.4-27.8c0.5-3.9,0.7-7.8,1.1-11.7c1.7-14.9,8.9-27.9,13.8-41.6
	c9.5-26.9,2.4-50.5-20.5-67.5c-11.2-8.3-23.1-15.4-35.3-22.1c-18.8-10.3-38.7-14.8-59.9-9.5C416.2,207.9,386.8,236.9,388,292z"/>
<path class="st1" d="M388,292c-1.2-55.1,28.2-84,80.5-97.1c21.2-5.3,41.1-0.8,59.9,9.5c12.2,6.7,24.1,13.8,35.3,22.1
	c22.9,17,30,40.6,20.5,67.5c-4.9,13.8-12.1,26.8-13.8,41.6c-0.4,3.9-0.7,7.8-1.1,11.7c-2.2,18.4-12.2,29.5-30.4,27.8
	c-25.5-2.5-49.3,4.2-73.8,8.1c-23.7,3.8-45.8,1-60.6-21.4c-4.4-6.6-7.3-14-9.3-21.6C390.7,323.7,387.7,307,388,292z M472.8,345.8
	C472.8,345.8,472.8,345.7,472.8,345.8c13.9-0.1,27.8-0.3,41.7,0c6.5,0.1,9.5-1.8,9.3-9c-0.4-18.9-0.2-37.8-0.1-56.6
	c0-3.7-1.1-6.5-3.8-9c-13.9-13.2-27.7-26.5-41.4-39.9c-4.1-4-7.5-3.8-11.4,0.1c-13.3,13.1-26.6,26-40.1,38.9
	c-3.1,2.9-4.4,6-4.4,10.3c0.2,19.1,0.2,38.3-0.1,57.4c-0.1,5.9,2,7.9,7.7,7.8C444.5,345.6,458.6,345.8,472.8,345.8z"/>
<path class="st0" d="M472.8,345.8c-14.2,0-28.3-0.2-42.5,0.1c-5.7,0.1-7.8-1.8-7.7-7.8c0.4-19.1,0.3-38.3,0.1-57.4
	c0-4.3,1.3-7.4,4.4-10.3c13.5-12.9,26.9-25.8,40.1-38.9c4-3.9,7.3-4.1,11.4-0.1c13.7,13.4,27.5,26.6,41.3,39.9
	c2.7,2.5,3.8,5.3,3.8,9c-0.2,18.9-0.3,37.8,0.1,56.6c0.2,7.2-2.8,9.1-9.3,9C500.6,345.5,486.7,345.7,472.8,345.8
	C472.8,345.7,472.8,345.8,472.8,345.8z M472.9,336.4C472.9,336.5,472.9,336.5,472.9,336.4c10.7,0.1,21.5-0.3,32.2,0.2
	c6.7,0.3,9.6-1.1,9.3-8.8c-0.7-14.4-0.4-28.8,0-43.2c0.1-4.7-1.5-7.8-4.8-10.9c-11.1-10.4-22.1-20.9-32.9-31.5
	c-2.8-2.8-4.5-3.1-7.5-0.1c-11,10.9-22.2,21.5-33.5,32.1c-2.4,2.3-3.8,4.6-3.8,8.1c0.2,16.2,0.2,32.5,0.1,48.7c0,4,1.3,5.5,5.4,5.5
	C449.3,336.3,461.1,336.4,472.9,336.4z"/>
<path class="st1" d="M472.9,336.4c-11.8,0-23.6-0.1-35.4,0.1c-4.1,0.1-5.4-1.4-5.4-5.5c0.1-16.2,0.1-32.5-0.1-48.7
	c0-3.5,1.3-5.9,3.8-8.1c11.2-10.6,22.5-21.2,33.5-32.1c3-3,4.6-2.7,7.5,0.1c10.8,10.7,21.8,21.2,32.9,31.5c3.3,3.1,4.9,6.2,4.8,10.9
	c-0.3,14.4-0.7,28.8,0,43.2c0.4,7.7-2.5,9.1-9.3,8.8C494.3,336.2,483.6,336.5,472.9,336.4C472.9,336.5,472.9,336.5,472.9,336.4z"/>
<g>
	<path d="M860.2,203h-55v-22.8h134.1V203h-55v142.8h-24.2L860.2,203L860.2,203z"/>
	<path d="M993.1,326.5c15,0,26.2-6.9,32.4-19.8l23.5,7.6c-9.7,22.3-30.6,35-54.5,35c-37.3,0-62.1-26.2-62.1-64.4
		c0-40.7,24.4-66.7,60.7-66.7c37.9,0,60.3,27.8,57.7,72.2h-92.7C960,313.6,972.2,326.5,993.1,326.5z M958.8,271.8h67.4
		c-2.5-21.9-13.1-32.2-32.2-32.2C973.8,239.6,961.8,250.8,958.8,271.8z"/>
	<path d="M1143.3,221.6v22.5c-8.1-2.1-18.9-1.6-26.9,3.9c-11.7,7.4-15.9,20.5-15.9,35v62.8h-24.2V221.6h21.4v19.8
		c3-5.1,6.9-9.7,11.5-12.6C1118.7,221.6,1132.3,219.6,1143.3,221.6z"/>
	<path d="M1167.5,177.2h24.2v23.2h-24.2V177.2z M1167.5,221.6h24.2v124.2h-24.2V221.6z"/>
	<path d="M1228.4,177.2h24.2v23.2h-24.2V177.2z M1228.4,221.6h24.2v124.2h-24.2V221.6z"/>
	<path d="M1280.2,311.1l24.6-3.9c3,12.9,14.7,20.9,31.3,20.9c15.2,0,24.2-6.7,24.2-17.2c0-9.4-4.1-12-33.3-19.8
		c-32-8.5-42.8-17.5-42.8-35.6c0-22.5,19.3-37.3,48.3-37.3c28.8,0,49,14.5,52,36.6l-24.6,4.4c-1.8-12-12-19.1-27.1-19.8
		c-14.5-0.5-24.4,5.5-24.4,15c0,8,5.5,11.5,34.7,18.9c31.3,8,42.1,17.5,42.1,36.8c0,24.4-19.1,39.3-50.6,39.3
		C1304.3,349.3,1284.3,335.2,1280.2,311.1z"/>
</g>
<g>
	<path d="M748.3,448.8H739v-2h20.6v2h-9.2v23.9h-2.1L748.3,448.8L748.3,448.8z"/>
	<path d="M762.5,446.8h16v2h-13.9v9.8h11.8v2h-11.8v10h13.9v2h-16V446.8z"/>
	<path d="M798.9,472.7l-4.9-10.1h-9v10.1h-2.1v-25.9h9.8c0.5,0,1.1,0,1.7,0.1c3.9,0.6,6.2,3.8,6.2,7.8c0,3.3-1.7,6.2-4.6,7.3
		l5.2,10.7L798.9,472.7L798.9,472.7z M792.7,460.5c0.4,0,1,0,1.6-0.1c2.8-0.6,4.2-3.1,4.2-5.7s-1.4-5.2-4.2-5.8
		c-0.6-0.1-1.2-0.1-1.6-0.1H785v11.8L792.7,460.5L792.7,460.5z"/>
	<path d="M821.2,472.7l-4.9-10.1h-9v10.1h-2.1v-25.9h9.8c0.5,0,1.1,0,1.7,0.1c3.9,0.6,6.2,3.8,6.2,7.8c0,3.3-1.7,6.2-4.6,7.3
		l5.2,10.7L821.2,472.7L821.2,472.7z M815,460.5c0.4,0,1,0,1.6-0.1c2.8-0.6,4.2-3.1,4.2-5.7s-1.4-5.2-4.2-5.8
		c-0.6-0.1-1.2-0.1-1.6-0.1h-7.7v11.8L815,460.5L815,460.5z"/>
	<path d="M828,446.8h2.1v25.9H828V446.8z"/>
	<path d="M842.6,448.8h-9.3v-2h20.6v2h-9.2v23.9h-2.1L842.6,448.8L842.6,448.8z"/>
	<path d="M855.4,459.7c0-8,4-13.5,11.8-13.5c7.8,0,11.8,5.5,11.8,13.5c0,8-4,13.5-11.8,13.5C859.4,473.2,855.4,467.7,855.4,459.7z
		 M876.7,459.7c0-6.8-3.2-11.5-9.6-11.5c-6.4,0-9.5,4.7-9.5,11.5c-0.1,6.7,3.2,11.5,9.5,11.5C873.5,471.2,876.7,466.4,876.7,459.7z"
		/>
	<path d="M882.9,446.8h2.1v25.9h-2.1V446.8z"/>
	<path d="M906.4,472.7l-4.9-10.1h-9v10.1h-2.1v-25.9h9.8c0.5,0,1.1,0,1.7,0.1c3.9,0.6,6.2,3.8,6.2,7.8c0,3.3-1.7,6.2-4.6,7.3
		l5.2,10.7L906.4,472.7L906.4,472.7z M900.1,460.5c0.4,0,1,0,1.6-0.1c2.8-0.6,4.2-3.1,4.2-5.7s-1.4-5.2-4.2-5.8
		c-0.6-0.1-1.2-0.1-1.6-0.1h-7.7v11.8L900.1,460.5L900.1,460.5z"/>
	<path d="M912.7,446.8h16v2h-13.9v9.8h11.8v2h-11.8v10h13.9v2h-16V446.8z"/>
	<path d="M930.5,466l2.1-0.4c0.9,3.5,4,5.6,8.1,5.6c4.2,0,7.1-2.1,7.1-5.4c0-3.1-2.6-4.1-4.4-4.6l-6.5-1.9c-3.5-1-5.4-3-5.4-6.1
		c0-4.1,3.6-7,8.6-7c5.2,0,8.9,3,9.7,7.6l-2.2,0.4c-0.5-3.6-3.6-5.9-7.5-5.9c-3.8,0-6.4,2.1-6.4,4.9c0,2.9,2.8,3.8,4.9,4.4l5.2,1.5
		c2,0.6,6.1,1.8,6.1,6.7c0,4.6-3.8,7.5-9.2,7.5C935.3,473.2,931.4,470.4,930.5,466z"/>
	<path class="st0" d="M966.9,461.3c0-1.5,1.2-2.6,2.7-2.6c1.4,0,2.6,1.1,2.6,2.6s-1.2,2.6-2.6,2.6
		C968.1,464,966.9,462.8,966.9,461.3z"/>
	<path d="M990.9,446.8h2.1v25.9h-2.1V446.8z"/>
	<path d="M998.4,446.8h2.1l15,22.2v-22.2h2.1v25.9h-2.1l-15-22.2v22.2h-2.1V446.8z"/>
	<path d="M1023,446.8h2.1v25.9h-2.1L1023,446.8L1023,446.8z"/>
	<path d="M1037.6,448.8h-9.3v-2h20.6v2h-9.2v23.9h-2.1L1037.6,448.8L1037.6,448.8z"/>
	<path d="M1052.2,446.8h2.1v25.9h-2.1V446.8z"/>
	<path d="M1074.3,466.2h-11.9l-2.3,6.5h-2.2l9.2-25.9h2.6l9.2,25.9h-2.2L1074.3,466.2z M1073.6,464.2l-5.3-14.9l-5.2,14.9H1073.6z"
		/>
	<path d="M1087,448.8h-9.3v-2h20.6v2h-9.2v23.9h-2.1L1087,448.8L1087,448.8z"/>
	<path d="M1101.6,446.8h2.1v25.9h-2.1V446.8z"/>
	<path d="M1106.7,446.8h2.2l8.2,23.3l8.3-23.3h2.2l-9.2,25.9h-2.6L1106.7,446.8z"/>
	<path d="M1130.4,446.8h16v2h-13.9v9.8h11.8v2h-11.8v10h13.9v2h-16V446.8z"/>
	<path d="M1148.1,466l2.1-0.4c0.9,3.5,4,5.6,8.1,5.6c4.2,0,7.1-2.1,7.1-5.4c0-3.1-2.6-4.1-4.4-4.6l-6.5-1.9c-3.5-1-5.4-3-5.4-6.1
		c0-4.1,3.6-7,8.6-7c5.2,0,8.9,3,9.7,7.6l-2.2,0.4c-0.5-3.6-3.6-5.9-7.5-5.9c-3.8,0-6.4,2.1-6.4,4.9c0,2.9,2.8,3.8,4.9,4.4l5.2,1.5
		c2,0.6,6.1,1.8,6.1,6.7c0,4.6-3.8,7.5-9.2,7.5C1153,473.2,1149,470.4,1148.1,466z"/>
	<path class="st0" d="M1184.5,461.3c0-1.5,1.2-2.6,2.7-2.6c1.4,0,2.6,1.1,2.6,2.6s-1.2,2.6-2.6,2.6
		C1185.7,464,1184.5,462.8,1184.5,461.3z"/>
	<path d="M1208.6,446.8h2.1v25.9h-2.1V446.8z"/>
	<path d="M1216,446.8h1.9l10.6,22.9l10.6-22.9h2v25.9h-2v-21.1l-9.7,21.2h-1.7l-9.7-21.2v21.2h-2L1216,446.8L1216,446.8z"/>
	<path d="M1246.1,446.8h9.8c0.5,0,1.1,0,1.7,0.1c3.9,0.6,6.2,3.8,6.2,7.8c0,4-2.3,7.2-6.2,7.7c-0.7,0.1-1.3,0.1-1.7,0.1h-7.7v10.1
		h-2.1L1246.1,446.8L1246.1,446.8z M1255.9,460.5c0.4,0,1,0,1.6-0.1c2.8-0.6,4.2-3.1,4.2-5.7s-1.4-5.2-4.2-5.8
		c-0.6-0.1-1.2-0.1-1.6-0.1h-7.7v11.8L1255.9,460.5L1255.9,460.5z"/>
	<path d="M1280.3,466.2h-11.9l-2.3,6.5h-2.2l9.2-25.9h2.6l9.2,25.9h-2.2L1280.3,466.2z M1279.6,464.2l-5.3-14.9l-5.3,14.9H1279.6z"
		/>
	<path d="M1285.9,459.7c0-8,4-13.5,11.8-13.5c6.1,0,9.8,3.4,11.2,8.6l-2.2,0.5c-1.1-4.3-4.1-7.1-9-7.1c-6.4,0-9.5,4.7-9.6,11.5
		c0,6.7,3.2,11.5,9.6,11.5c4.9,0,7.9-2.8,9-7.1l2.2,0.5c-1.4,5.2-5.2,8.6-11.2,8.6C1289.9,473.2,1285.9,467.7,1285.9,459.7z"/>
	<path d="M1319.9,448.8h-9.3v-2h20.6v2h-9.2v23.9h-2.1L1319.9,448.8L1319.9,448.8z"/>
	<path d="M1338.9,466l2.1-0.4c0.9,3.5,4,5.6,8.1,5.6c4.2,0,7.1-2.1,7.1-5.4c0-3.1-2.6-4.1-4.4-4.6l-6.5-1.9c-3.5-1-5.4-3-5.4-6.1
		c0-4.1,3.6-7,8.6-7c5.2,0,8.9,3,9.7,7.6l-2.2,0.4c-0.5-3.6-3.6-5.9-7.5-5.9c-3.8,0-6.4,2.1-6.4,4.9c0,2.9,2.8,3.8,4.9,4.4l5.2,1.5
		c2,0.6,6.1,1.8,6.1,6.7c0,4.6-3.8,7.5-9.2,7.5C1343.7,473.2,1339.8,470.4,1338.9,466z"/>
	<path d="M1360.5,459.7c0-8,4-13.5,11.8-13.5c7.8,0,11.8,5.5,11.8,13.5c0,8-4,13.5-11.8,13.5
		C1364.6,473.2,1360.5,467.7,1360.5,459.7z M1381.9,459.7c0-6.8-3.2-11.5-9.6-11.5c-6.4,0-9.5,4.7-9.5,11.5
		c-0.1,6.7,3.2,11.5,9.5,11.5C1378.7,471.2,1381.9,466.4,1381.9,459.7z"/>
	<path d="M1386.3,459.7c0-8,4-13.5,11.8-13.5c6.1,0,9.8,3.4,11.2,8.6l-2.2,0.5c-1.1-4.3-4.1-7.1-9-7.1c-6.4,0-9.5,4.7-9.6,11.5
		c0,6.7,3.2,11.5,9.6,11.5c4.9,0,7.9-2.8,9-7.1l2.2,0.5c-1.4,5.2-5.2,8.6-11.2,8.6C1390.3,473.2,1386.3,467.7,1386.3,459.7z"/>
	<path d="M1413.6,446.8h2.1v25.9h-2.1V446.8z"/>
	<path d="M1435.7,466.2h-11.9l-2.3,6.5h-2.2l9.2-25.9h2.6l9.2,25.9h-2.2L1435.7,466.2z M1435,464.2l-5.3-14.9l-5.2,14.9H1435z"/>
	<path d="M1443.8,446.8h2.1v23.9h12.6v2h-14.7V446.8z"/>
</g>
</svg>
