<?xml version="1.0" encoding="utf-8"?>
<!-- Generator: Adobe Illustrator 28.2.0, SVG Export Plug-In . SVG Version: 6.00 Build 0)  -->
<svg version="1.1" id="Calque_1" xmlns="http://www.w3.org/2000/svg" xmlns:xlink="http://www.w3.org/1999/xlink" x="0px" y="0px"
	 viewBox="0 0 1000 1000" style="enable-background:new 0 0 1000 1000;" xml:space="preserve">
<style type="text/css">
	.st0{fill:#FAA023;}
	.st1{fill:none;}
</style>
<path class="st0" d="M197.66,453.47c-0.4-24.19,4.3-62.35,16.19-99.41c22.25-69.37,69.62-112.18,140.73-125.56
	c46.73-8.79,93.12-18.36,139.32-29.61c65.43-15.93,123.19,2.35,172.65,46.7c48.39,43.39,84.34,96.31,111.25,155.04
	c16.52,36.06,14.51,73.48,1.06,110.6c-12.68,34.98-32.56,66.57-46.66,100.86c-3.68,8.94-9.41,2.36-14.13,1.62
	c-5.57-0.88-7.44-4.29-4.69-9.66c4.43-8.65,8.58-17.45,13.22-25.99c13.42-24.67,27.31-49.09,36.75-75.69
	c12.78-36.02,12.17-71.56-5.65-105.63c-27.06-51.77-59.68-99.59-103.98-138.46c-48.63-42.65-104.28-57.76-167.05-39.61
	c-38.96,11.26-78.37,19.24-118.47,25.2c-77.96,11.59-125.13,58.76-142.22,133.97c-20.73,91.18-11.79,180.98,22.83,267.82
	c34.92,87.58,112.57,109.88,186.51,91.24c24.67-6.22,48.52-15.36,73.56-20.24c11.53-2.24,23.12-1.68,34.73-1.22
	c4.82,0.19,8.77,2.31,7.05,7.48c-1.56,4.69-0.06,13.79-7.84,12.68c-34.26-4.91-64.74,9.75-96.55,17.37
	c-44.48,10.66-88.19,11.2-130.96-7.54c-44.43-19.47-68.81-56.22-85.7-99.27C207.17,588.98,198.08,529.32,197.66,453.47z"/>
<path class="st0" d="M261.17,491.61c-0.63-32.54,3.52-62.79,13.66-92.13c17.8-51.48,52.62-86.35,103.67-104.68
	c28.9-10.38,58.73-17.61,89.1-22.51c35.24-5.69,68.54,0.92,97.85,20.27c43.18,28.5,83.6,60.89,117.57,100.26
	c26.81,31.07,32.55,66.43,16.76,104.77c-2.28,5.53-4.16,11.31-7.08,16.49c-20.25,35.84-29.66,74.59-34.25,115.28
	c-4.17,37-28.78,56.85-66.2,56.21c-11.91-0.2-23.83-2.2-35.67-3.91c-27.33-3.95-53.66,0.54-79.71,8.49
	c-22.16,6.77-44.05,14.73-67.41,16.72c-46.84,4-83.63-13.48-108.91-52.96c-22.69-35.45-31.27-75.79-36.86-116.82
	C261.56,521.51,260.45,505.79,261.17,491.61z M276.42,491.07c0.07,44.93,6.23,88.92,22.98,130.77
	c14.91,37.25,39.93,64.16,81.77,70.36c23.16,3.43,45.54-2.16,67.21-9.56c44.79-15.3,89.91-20.49,136.95-11.37
	c31.41,6.09,54.03-10.74,60.46-42.37c3.49-17.19,4.94-34.78,7.88-52.09c4.66-27.4,18.77-51.12,30.47-75.74
	c18.89-39.76,13.02-75.86-16.9-107.54c-32.02-33.9-68.99-62.08-107.76-87.69c-30.54-20.17-64.7-24.54-100.31-17.42
	c-26.43,5.28-52.64,11.61-78.04,20.68c-40.1,14.31-69.39,40.59-86.39,79.96C280.69,421.64,276.29,455.95,276.42,491.07z"/>
<path class="st0" d="M719.56,662.92c-0.4,6.33-0.7,12.68-1.23,19c-0.27,3.19,0.1,7.59-5.24,6.23c-3.65-0.93-9.21-0.4-9.16-6.18
	c0.1-11.94,0.64-23.88,1.37-35.8c0.3-5.01,2.48-8.33,8.71-7.19c5.76,1.06,7.27,3.88,6.32,9.4c-0.81,4.76-0.68,9.68-0.96,14.52
	C719.43,662.91,719.5,662.91,719.56,662.92z"/>
<path class="st0" d="M679.85,744.97c-2.44,0.01-3.46-3.66-5.41-6.2c-2.21-2.87-2.03-5.54,1.02-7.66
	c7.75-5.4,14.07-12.19,19.31-19.99c2.28-3.39,4.93-2.69,7.67-0.9c2.35,1.54,5.86,1.96,5.92,5.87
	C708.46,722.46,687.9,744.62,679.85,744.97z"/>
<path class="st0" d="M631.25,743.06c3.73-0.21,7.56,0.07,11.16-0.74c6.52-1.46,9.49,0.22,10.34,7.35c0.85,7.17-2.86,8.01-8.24,8.68
	c-6.73,0.84-13.4,1.03-20.09,0.03c-4.41-0.66-10.57,1.01-9.84-7.05c0.63-6.92,3.92-10.07,11.07-8.62c1.79,0.36,3.72,0.05,5.59,0.05
	C631.24,742.87,631.24,742.96,631.25,743.06z"/>
<path class="st0" d="M567.4,734.35c0.29-0.74,0.71-1.77,1.09-2.81c1.8-4.97,5.34-6.46,9.65-3.66c6.3,4.1,17.49,2.5,18.32,12.61
	c0.44,5.38-3.44,11-11.23,6.32c-4.48-2.69-9.35-4.72-13.97-7.18C569.31,738.59,567.25,737.43,567.4,734.35z"/>
<path class="st1" d="M276.42,491.07c-0.13-35.13,4.26-69.44,18.32-102c17-39.37,46.29-65.65,86.39-79.96
	c25.41-9.07,51.62-15.4,78.04-20.68c35.61-7.12,69.77-2.75,100.31,17.42c38.77,25.6,75.74,53.79,107.76,87.69
	c29.93,31.68,35.8,67.79,16.9,107.54c-11.7,24.62-25.81,48.34-30.47,75.74c-2.94,17.31-4.39,34.9-7.88,52.09
	c-6.43,31.63-29.05,48.46-60.46,42.37c-47.03-9.13-92.16-3.93-136.95,11.37c-21.67,7.4-44.05,12.99-67.21,9.56
	c-41.85-6.2-66.86-33.11-81.77-70.36C282.65,580,276.49,536,276.42,491.07z M535.98,632.28c5.62,0,11.23,0,16.85,0
	c31.41-0.02,50.2-14.39,53.79-45.54c3.06-26.52,11.62-50.81,21.42-75.15c16.63-41.29,6.55-80.35-27.46-109.13
	c-18.36-15.54-38.36-28.77-59.4-40.24c-18.46-10.07-37.9-17.82-59.58-17.78c-39.76,0.06-74.53,14.6-106.18,37.27
	c-28.45,20.38-45.81,48.48-50.51,83.07c-5.85,43.01-0.58,85.3,15.21,125.71c14.69,37.6,43.36,55.69,83.77,55.7
	c16.63,0.01,32.76-2.85,48.84-6.44C493.56,635.1,514.35,630.09,535.98,632.28z"/>
<path class="st0" d="M535.98,632.28c-21.63-2.18-42.42,2.82-63.25,7.47c-16.09,3.59-32.22,6.45-48.84,6.44
	c-40.41-0.01-69.08-18.1-83.77-55.7c-15.79-40.41-21.05-82.7-15.21-125.71c4.7-34.58,22.06-62.68,50.51-83.07
	c31.65-22.67,66.42-37.21,106.18-37.27c21.67-0.03,41.11,7.72,59.58,17.78c21.04,11.47,41.04,24.7,59.4,40.24
	c34.01,28.78,44.08,67.85,27.46,109.13c-9.8,24.33-18.36,48.63-21.42,75.15c-3.59,31.15-22.38,45.52-53.79,45.54
	C547.21,632.28,541.59,632.28,535.98,632.28z M337.03,501.05c-0.32,21.46,4,45.39,10.2,68.97c2.85,10.85,7.03,21.35,13.28,30.82
	c21.09,32.01,52.75,36.03,86.54,30.62c34.98-5.6,69.01-15.16,105.45-11.59c26.03,2.55,40.41-13.33,43.49-39.67
	c0.65-5.57,0.96-11.18,1.58-16.75c2.37-21.21,12.72-39.78,19.68-59.49c13.57-38.45,3.47-72.22-29.24-96.43
	c-15.96-11.81-33-22.05-50.41-31.59c-26.88-14.72-55.31-21.1-85.57-13.56C377.36,380.99,335.37,422.34,337.03,501.05z"/>
<path class="st1" d="M337.03,501.05c-1.66-78.71,40.33-120.06,115.01-138.66c30.26-7.54,58.69-1.16,85.57,13.56
	c17.42,9.54,34.46,19.78,50.41,31.59c32.7,24.21,42.81,57.97,29.24,96.43c-6.95,19.7-17.31,38.28-19.68,59.49
	c-0.62,5.57-0.93,11.18-1.58,16.75c-3.08,26.34-17.46,42.22-43.49,39.67c-36.44-3.57-70.47,5.99-105.45,11.59
	c-33.79,5.41-65.45,1.39-86.54-30.62c-6.24-9.47-10.42-19.97-13.28-30.82C341.02,546.44,336.71,522.51,337.03,501.05z
	 M458.24,577.95c0-0.04,0-0.07,0-0.11c19.86,0,39.73-0.28,59.58,0.12c9.34,0.19,13.58-2.52,13.35-12.81
	c-0.59-26.96-0.34-53.95-0.13-80.92c0.04-5.32-1.59-9.22-5.39-12.84c-19.79-18.87-39.52-37.82-59.08-56.93
	c-5.82-5.69-10.64-5.36-16.31,0.22c-18.96,18.66-38.07,37.16-57.31,55.53c-4.37,4.18-6.31,8.58-6.25,14.74
	c0.24,27.35,0.3,54.7-0.21,82.04c-0.16,8.49,2.84,11.22,11.05,11.07C417.77,577.7,438.01,577.95,458.24,577.95z"/>
<path class="st0" d="M458.24,577.95c-20.24,0-40.48-0.25-60.7,0.12c-8.2,0.15-11.2-2.58-11.05-11.07c0.5-27.34,0.45-54.7,0.21-82.04
	c-0.06-6.17,1.88-10.57,6.25-14.74c19.24-18.37,38.35-36.87,57.31-55.53c5.67-5.58,10.49-5.91,16.31-0.22
	c19.56,19.12,39.29,38.06,59.08,56.93c3.8,3.62,5.43,7.52,5.39,12.84c-0.21,26.97-0.47,53.96,0.13,80.92
	c0.23,10.29-4.02,12.99-13.35,12.81c-19.85-0.4-39.72-0.12-59.58-0.12C458.24,577.88,458.24,577.92,458.24,577.95z M458.33,564.58
	c0,0.04,0,0.08,0,0.12c15.34,0,30.7-0.48,46.02,0.18c9.62,0.41,13.78-1.6,13.25-12.6c-1-20.53-0.55-41.14-0.05-61.71
	c0.16-6.68-2.11-11.14-6.8-15.52c-15.85-14.81-31.52-29.82-46.95-45.07c-4.05-4-6.38-4.39-10.66-0.14
	c-15.67,15.54-31.74,30.67-47.78,45.82c-3.45,3.26-5.42,6.61-5.36,11.62c0.26,23.19,0.31,46.39,0.11,69.58
	c-0.05,5.78,1.83,7.91,7.71,7.81C424.65,564.4,441.49,564.58,458.33,564.58z"/>
<path class="st1" d="M458.33,564.58c-16.84,0-33.68-0.18-50.51,0.1c-5.88,0.1-7.76-2.04-7.71-7.81c0.2-23.19,0.15-46.39-0.11-69.58
	c-0.06-5.02,1.91-8.37,5.36-11.62c16.04-15.15,32.11-30.29,47.78-45.82c4.28-4.24,6.62-3.86,10.66,0.14
	c15.43,15.25,31.1,30.25,46.95,45.07c4.69,4.38,6.96,8.84,6.8,15.52c-0.49,20.56-0.94,41.18,0.05,61.71
	c0.53,11-3.64,13.01-13.25,12.6c-15.31-0.66-30.68-0.18-46.02-0.18C458.33,564.66,458.33,564.62,458.33,564.58z"/>
</svg>
